<svg width="90" height="90" viewBox="0 0 90 90" fill="none" xmlns="http://www.w3.org/2000/svg">
<path d="M28.125 0C28.8709 0 29.5863 0.296316 30.1137 0.823762C30.6412 1.35121 30.9375 2.06658 30.9375 2.8125V11.25H36.5625V2.8125C36.5625 2.06658 36.8588 1.35121 37.3863 0.823762C37.9137 0.296316 38.6291 0 39.375 0C40.1209 0 40.8363 0.296316 41.3637 0.823762C41.8912 1.35121 42.1875 2.06658 42.1875 2.8125V11.25H47.8125V2.8125C47.8125 2.06658 48.1088 1.35121 48.6363 0.823762C49.1637 0.296316 49.8791 0 50.625 0C51.3709 0 52.0863 0.296316 52.6137 0.823762C53.1412 1.35121 53.4375 2.06658 53.4375 2.8125V11.25H59.0625V2.8125C59.0625 2.06658 59.3588 1.35121 59.8863 0.823762C60.4137 0.296316 61.1291 0 61.875 0C62.6209 0 63.3363 0.296316 63.8637 0.823762C64.3912 1.35121 64.6875 2.06658 64.6875 2.8125V11.25C68.4171 11.25 71.994 12.7316 74.6312 15.3688C77.2684 18.006 78.75 21.5829 78.75 25.3125H87.1875C87.9334 25.3125 88.6488 25.6088 89.1762 26.1363C89.7037 26.6637 90 27.3791 90 28.125C90 28.8709 89.7037 29.5863 89.1762 30.1137C88.6488 30.6412 87.9334 30.9375 87.1875 30.9375H78.75V36.5625H87.1875C87.9334 36.5625 88.6488 36.8588 89.1762 37.3863C89.7037 37.9137 90 38.6291 90 39.375C90 40.1209 89.7037 40.8363 89.1762 41.3637C88.6488 41.8912 87.9334 42.1875 87.1875 42.1875H78.75V47.8125H87.1875C87.9334 47.8125 88.6488 48.1088 89.1762 48.6363C89.7037 49.1637 90 49.8791 90 50.625C90 51.3709 89.7037 52.0863 89.1762 52.6137C88.6488 53.1412 87.9334 53.4375 87.1875 53.4375H78.75V59.0625H87.1875C87.9334 59.0625 88.6488 59.3588 89.1762 59.8863C89.7037 60.4137 90 61.1291 90 61.875C90 62.6209 89.7037 63.3363 89.1762 63.8637C88.6488 64.3912 87.9334 64.6875 87.1875 64.6875H78.75C78.75 68.4171 77.2684 71.994 74.6312 74.6312C71.994 77.2684 68.4171 78.75 64.6875 78.75V87.1875C64.6875 87.9334 64.3912 88.6488 63.8637 89.1762C63.3363 89.7037 62.6209 90 61.875 90C61.1291 90 60.4137 89.7037 59.8863 89.1762C59.3588 88.6488 59.0625 87.9334 59.0625 87.1875V78.75H53.4375V87.1875C53.4375 87.9334 53.1412 88.6488 52.6137 89.1762C52.0863 89.7037 51.3709 90 50.625 90C49.8791 90 49.1637 89.7037 48.6363 89.1762C48.1088 88.6488 47.8125 87.9334 47.8125 87.1875V78.75H42.1875V87.1875C42.1875 87.9334 41.8912 88.6488 41.3637 89.1762C40.8363 89.7037 40.1209 90 39.375 90C38.6291 90 37.9137 89.7037 37.3863 89.1762C36.8588 88.6488 36.5625 87.9334 36.5625 87.1875V78.75H30.9375V87.1875C30.9375 87.9334 30.6412 88.6488 30.1137 89.1762C29.5863 89.7037 28.8709 90 28.125 90C27.3791 90 26.6637 89.7037 26.1363 89.1762C25.6088 88.6488 25.3125 87.9334 25.3125 87.1875V78.75C21.5829 78.75 18.006 77.2684 15.3688 74.6312C12.7316 71.994 11.25 68.4171 11.25 64.6875H2.8125C2.06658 64.6875 1.35121 64.3912 0.823762 63.8637C0.296316 63.3363 0 62.6209 0 61.875C0 61.1291 0.296316 60.4137 0.823762 59.8863C1.35121 59.3588 2.06658 59.0625 2.8125 59.0625H11.25V53.4375H2.8125C2.06658 53.4375 1.35121 53.1412 0.823762 52.6137C0.296316 52.0863 0 51.3709 0 50.625C0 49.8791 0.296316 49.1637 0.823762 48.6363C1.35121 48.1088 2.06658 47.8125 2.8125 47.8125H11.25V42.1875H2.8125C2.06658 42.1875 1.35121 41.8912 0.823762 41.3637C0.296316 40.8363 0 40.1209 0 39.375C0 38.6291 0.296316 37.9137 0.823762 37.3863C1.35121 36.8588 2.06658 36.5625 2.8125 36.5625H11.25V30.9375H2.8125C2.06658 30.9375 1.35121 30.6412 0.823762 30.1137C0.296316 29.5863 0 28.8709 0 28.125C0 27.3791 0.296316 26.6637 0.823762 26.1363C1.35121 25.6088 2.06658 25.3125 2.8125 25.3125H11.25C11.25 21.5829 12.7316 18.006 15.3688 15.3688C18.006 12.7316 21.5829 11.25 25.3125 11.25V2.8125C25.3125 2.06658 25.6088 1.35121 26.1363 0.823762C26.6637 0.296316 27.3791 0 28.125 0V0ZM25.3125 16.875C23.0747 16.875 20.9286 17.7639 19.3463 19.3463C17.7639 20.9286 16.875 23.0747 16.875 25.3125V64.6875C16.875 66.9253 17.7639 69.0714 19.3463 70.6537C20.9286 72.2361 23.0747 73.125 25.3125 73.125H64.6875C66.9253 73.125 69.0714 72.2361 70.6537 70.6537C72.2361 69.0714 73.125 66.9253 73.125 64.6875V25.3125C73.125 23.0747 72.2361 20.9286 70.6537 19.3463C69.0714 17.7639 66.9253 16.875 64.6875 16.875H25.3125ZM28.125 36.5625C28.125 34.3247 29.0139 32.1786 30.5963 30.5963C32.1786 29.0139 34.3247 28.125 36.5625 28.125H53.4375C55.6753 28.125 57.8214 29.0139 59.4037 30.5963C60.9861 32.1786 61.875 34.3247 61.875 36.5625V53.4375C61.875 55.6753 60.9861 57.8214 59.4037 59.4037C57.8214 60.9861 55.6753 61.875 53.4375 61.875H36.5625C34.3247 61.875 32.1786 60.9861 30.5963 59.4037C29.0139 57.8214 28.125 55.6753 28.125 53.4375V36.5625ZM36.5625 33.75C35.8166 33.75 35.1012 34.0463 34.5738 34.5738C34.0463 35.1012 33.75 35.8166 33.75 36.5625V53.4375C33.75 54.1834 34.0463 54.8988 34.5738 55.4262C35.1012 55.9537 35.8166 56.25 36.5625 56.25H53.4375C54.1834 56.25 54.8988 55.9537 55.4262 55.4262C55.9537 54.8988 56.25 54.1834 56.25 53.4375V36.5625C56.25 35.8166 55.9537 35.1012 55.4262 34.5738C54.8988 34.0463 54.1834 33.75 53.4375 33.75H36.5625Z" fill="#2F2F2F"/>
</svg>
