<svg width="90" height="90" viewBox="0 0 90 90" fill="none" xmlns="http://www.w3.org/2000/svg">
<path d="M19.1982 28.9729C20.2149 26.4839 23.175 26.0142 25.5193 25.5586C26.8046 25.3054 27.9605 25.5586 29.1966 25.0242C30.1472 24.6121 30.7814 23.3761 31.3144 22.559C33.3957 19.3429 36.4753 21.4621 39.3103 21.9825C42.1861 22.5154 44.6738 20.3836 47.5299 20.8068C48.6577 20.9742 49.1471 19.2459 48.0052 19.0771C44.7807 18.6018 41.9766 20.8139 38.8153 20.0446C36.2278 19.4189 33.5743 17.9986 31.1569 20.025C29.9982 20.9981 29.5158 22.6125 28.2896 23.4731C27.6258 23.9343 26.2336 23.5898 25.4518 23.7403C24.7374 23.8823 24.0272 24.0257 23.3185 24.1861C20.738 24.7767 18.5049 25.9607 17.4657 28.4962C17.0297 29.5692 18.765 30.0276 19.1982 28.9743" fill="#58595B"/>
<path d="M89.9466 65.2444C89.9471 65.8104 89.8361 66.3709 89.6199 66.894C89.4037 67.4171 89.0865 67.8924 88.6865 68.2928C88.2865 68.6933 87.8114 69.0109 87.2886 69.2276C86.7657 69.4444 86.2052 69.5559 85.6392 69.5559H4.52112C3.37798 69.5552 2.2819 69.1006 1.47371 68.2922C0.66552 67.4837 0.21134 66.3875 0.210968 65.2444V31.6026C0.211714 30.46 0.666147 29.3644 1.47438 28.5567C2.28261 27.749 3.37849 27.2953 4.52112 27.2953H85.6378C86.2036 27.2953 86.7638 27.4067 87.2865 27.6233C87.8092 27.8399 88.2841 28.1573 88.6841 28.5574C89.0841 28.9575 89.4013 29.4325 89.6177 29.9553C89.8341 30.478 89.9454 31.0383 89.9452 31.604V65.2275" fill="#A6A8AB"/>
<path d="M69.4392 65.0601C69.4392 65.2978 68.3451 65.4862 66.9937 65.4862H20.9981C19.6481 65.4862 18.5583 65.2978 18.5583 65.0601V61.4573C18.5583 61.2295 19.6481 61.0411 20.9981 61.0411H66.9937C68.3451 61.0411 69.4392 61.2295 69.4392 61.4573V65.0601Z" fill="#E6E7E8"/>
<path d="M17.1422 57.7181C17.1422 57.9474 16.8328 58.1358 16.4531 58.1358H3.52966C3.14857 58.1358 2.84341 57.9474 2.84341 57.7181V54.1139C2.84341 53.8791 3.14998 53.6935 3.52966 53.6935H16.4531C16.8328 53.6935 17.1422 53.8791 17.1422 54.1139V57.7181Z" fill="#E6E7E8"/>
<path d="M87.9581 57.7181C87.9581 57.9474 87.7233 58.1358 87.4378 58.1358H77.5898C77.303 58.1358 77.0695 57.9474 77.0695 57.7181V54.1139C77.0695 53.8791 77.3058 53.6935 77.5898 53.6935H87.4378C87.7247 53.6935 87.9581 53.8791 87.9581 54.1139V57.7181Z" fill="#E6E7E8"/>
<path d="M9.0731 64.9265C9.0731 65.1614 8.90295 65.3498 8.69341 65.3498H3.22451C3.01357 65.3498 2.84341 65.1614 2.84341 64.9279V61.3223C2.84341 61.0903 3.01216 60.9061 3.22451 60.9061H8.69482C8.90295 60.9061 9.0731 61.0903 9.0731 61.3223V64.9265Z" fill="#E6E7E8"/>
<path d="M24.2817 57.7181C24.2817 57.9474 24.1833 58.1358 24.0609 58.1358H19.9547C19.8338 58.1358 19.7395 57.9474 19.7395 57.7181V54.1139C19.7395 53.8791 19.8338 53.6935 19.9547 53.6935H24.0609C24.1833 53.6935 24.2817 53.8791 24.2817 54.1139V57.7181Z" fill="#E6E7E8"/>
<path d="M31.448 57.7181C31.448 57.9474 31.3495 58.1358 31.2286 58.1358H27.1237C27.0014 58.1358 26.903 57.9474 26.903 57.7181V54.1139C26.903 53.8791 27.0014 53.6935 27.1237 53.6935H31.23C31.3495 53.6935 31.448 53.8791 31.448 54.1139V57.7181Z" fill="#E6E7E8"/>
<path d="M76.0345 65.2275C76.0345 65.3709 75.9318 65.4877 75.8123 65.4877H71.7061C71.5851 65.4877 71.4839 65.3709 71.4839 65.2275V63C71.4839 62.8594 71.5851 62.744 71.7061 62.744H75.8123C75.9318 62.744 76.0345 62.8608 76.0345 63V65.2275Z" fill="#E6E7E8"/>
<path d="M81.8522 65.2275C81.8522 65.3709 81.7537 65.4877 81.6328 65.4877H77.5237C77.4042 65.4877 77.3086 65.3709 77.3086 65.2275V63C77.3086 62.8594 77.4042 62.744 77.5237 62.744H81.6328C81.7537 62.744 81.8522 62.8608 81.8522 63V65.2275Z" fill="#E6E7E8"/>
<path d="M81.8522 61.8919C81.8522 62.0353 81.7537 62.152 81.6328 62.152H77.5237C77.4042 62.152 77.3086 62.0353 77.3086 61.8919V59.67C77.3086 59.5266 77.4042 59.4099 77.5237 59.4099H81.6328C81.7537 59.4099 81.8522 59.5266 81.8522 59.67V61.8919Z" fill="#E6E7E8"/>
<path d="M87.8428 65.2275C87.8428 65.3709 87.7486 65.4877 87.6248 65.4877H83.5186C83.3976 65.4877 83.2964 65.3709 83.2964 65.2275V63C83.2964 62.8594 83.3976 62.744 83.5186 62.744H87.6248C87.7486 62.744 87.8428 62.8608 87.8428 63V65.2275Z" fill="#E6E7E8"/>
<path d="M38.6564 57.7181C38.6564 57.9474 38.5579 58.1358 38.4342 58.1358H34.3279C34.2084 58.1358 34.1128 57.9474 34.1128 57.7181V54.1139C34.1128 53.8791 34.2084 53.6935 34.3279 53.6935H38.4328C38.5565 53.6935 38.655 53.8791 38.655 54.1139V57.7181H38.6564Z" fill="#E6E7E8"/>
<path d="M45.8338 57.7181C45.8338 57.9474 45.7354 58.1358 45.6116 58.1358H41.5054C41.3816 58.1358 41.286 57.9474 41.286 57.7181V54.1139C41.286 53.8791 41.3816 53.6935 41.5054 53.6935H45.6116C45.7354 53.6935 45.8338 53.8791 45.8338 54.1139V57.7181Z" fill="#E6E7E8"/>
<path d="M53.0465 57.7181C53.0465 57.9474 52.9481 58.1358 52.8314 58.1358H48.7237C48.6042 58.1358 48.5057 57.9474 48.5057 57.7181V54.1139C48.5057 53.8791 48.6042 53.6935 48.7237 53.6935H52.8314C52.9481 53.6935 53.0465 53.8791 53.0465 54.1139V57.7181Z" fill="#E6E7E8"/>
<path d="M60.217 57.7181C60.217 57.9474 60.1186 58.1358 59.999 58.1358H55.8886C55.769 58.1358 55.6706 57.9474 55.6706 57.7181V54.1139C55.6706 53.8791 55.769 53.6935 55.8886 53.6935H59.999C60.1186 53.6935 60.217 53.8791 60.217 54.1139V57.7181Z" fill="#E6E7E8"/>
<path d="M67.4282 57.7181C67.4282 57.9474 67.3326 58.1358 67.2131 58.1358H63.0984C62.9817 58.1358 62.8832 57.9474 62.8832 57.7181V54.1139C62.8832 53.8791 62.9817 53.6935 63.0984 53.6935H67.2117C67.3312 53.6935 67.4268 53.8791 67.4268 54.1139V57.7181" fill="#E6E7E8"/>
<path d="M74.6002 57.7181C74.6002 57.9474 74.5017 58.1358 74.3808 58.1358H70.2745C70.155 58.1358 70.0566 57.9474 70.0566 57.7181V54.1139C70.0566 53.8791 70.155 53.6935 70.2745 53.6935H74.3808C74.5017 53.6935 74.6002 53.8791 74.6002 54.1139V57.7181Z" fill="#E6E7E8"/>
<path d="M22.8445 50.4492C22.8445 50.6812 22.7461 50.8669 22.6266 50.8669H18.5203C18.398 50.8669 18.2995 50.6812 18.2995 50.4492V46.8422C18.2995 46.613 18.398 46.4245 18.5217 46.4245H22.6266C22.7461 46.4245 22.8445 46.613 22.8445 46.8422V50.4492Z" fill="#E6E7E8"/>
<path d="M30.0135 50.4492C30.0135 50.6812 29.9109 50.8669 29.7942 50.8669H25.6851C25.5642 50.8669 25.4657 50.6812 25.4657 50.4492V46.8422C25.4657 46.613 25.5642 46.4245 25.6851 46.4245H29.7942C29.9109 46.4245 30.0135 46.613 30.0135 46.8422V50.4492Z" fill="#E6E7E8"/>
<path d="M37.222 50.4492C37.222 50.6812 37.1264 50.8669 37.0068 50.8669H32.8964C32.774 50.8669 32.6784 50.6812 32.6784 50.4492V46.8422C32.6784 46.613 32.774 46.4245 32.8964 46.4245H37.0068C37.1264 46.4245 37.222 46.613 37.222 46.8422V50.4492Z" fill="#E6E7E8"/>
<path d="M8.4867 50.4492C8.4867 50.6812 8.38827 50.8669 8.27155 50.8669H4.16389C4.04014 50.8669 3.94592 50.6812 3.94592 50.4492V46.8422C3.94592 46.613 4.04014 46.4245 4.16389 46.4245H8.27295C8.38967 46.4245 8.48811 46.613 8.48811 46.8422V50.4492" fill="#E6E7E8"/>
<path d="M15.7063 50.4492C15.7063 50.6812 15.6079 50.8669 15.4912 50.8669H11.3765C11.2598 50.8669 11.1613 50.6812 11.1613 50.4492V46.8422C11.1613 46.613 11.2598 46.4245 11.3765 46.4245H15.487C15.6037 46.4245 15.7021 46.613 15.7021 46.8422V50.4492H15.7063Z" fill="#E6E7E8"/>
<path d="M44.3925 50.4492C44.3925 50.6812 44.2969 50.8669 44.1773 50.8669H40.064C39.9473 50.8669 39.8489 50.6812 39.8489 50.4492V46.8422C39.8489 46.613 39.9473 46.4245 40.064 46.4245H44.1759C44.2954 46.4245 44.3911 46.613 44.3911 46.8422V50.4492" fill="#E6E7E8"/>
<path d="M51.6121 50.4492C51.6121 50.6812 51.5137 50.8669 51.3942 50.8669H47.2865C47.1656 50.8669 47.0671 50.6812 47.0671 50.4492V46.8422C47.0671 46.613 47.1656 46.4245 47.2865 46.4245H51.3928C51.5137 46.4245 51.6121 46.613 51.6121 46.8422V50.4492Z" fill="#E6E7E8"/>
<path d="M58.7714 50.4492C58.7714 50.6812 58.6757 50.8669 58.5562 50.8669H54.45C54.3248 50.8669 54.2278 50.6812 54.2278 50.4492V46.8422C54.2278 46.613 54.3262 46.4245 54.45 46.4245H58.5548C58.6743 46.4245 58.77 46.613 58.77 46.8422V50.4492" fill="#E6E7E8"/>
<path d="M65.9967 50.4492C65.9967 50.6812 65.8982 50.8669 65.7759 50.8669H61.6696C61.5487 50.8669 61.4531 50.6812 61.4531 50.4492V46.8422C61.4531 46.613 61.5487 46.4245 61.6682 46.4245H65.7759C65.8982 46.4245 65.9967 46.613 65.9967 46.8422V50.4492Z" fill="#E6E7E8"/>
<path d="M73.1615 50.4492C73.1615 50.6812 73.0673 50.8669 72.9435 50.8669H68.8373C68.7136 50.8669 68.6151 50.6812 68.6151 50.4492V46.8422C68.6151 46.613 68.7136 46.4245 68.8373 46.4245H72.9435C73.0673 46.4245 73.1615 46.613 73.1615 46.8422V50.4492Z" fill="#E6E7E8"/>
<path d="M24.871 43.3884C24.871 43.6247 24.7697 43.8061 24.653 43.8061H20.5425C20.423 43.8061 20.3246 43.6233 20.3246 43.3884V39.7842C20.3246 39.5564 20.423 39.368 20.5425 39.368H24.653C24.7697 39.368 24.871 39.5564 24.871 39.7842V43.3884Z" fill="#E6E7E8"/>
<path d="M32.0343 43.3884C32.0343 43.6247 31.9401 43.8061 31.8164 43.8061H27.7087C27.592 43.8061 27.4936 43.6233 27.4936 43.3884V39.7842C27.4936 39.5564 27.592 39.368 27.7087 39.368H31.815C31.9401 39.368 32.0343 39.5564 32.0343 39.7842V43.3884Z" fill="#E6E7E8"/>
<path d="M39.254 43.3884C39.254 43.6247 39.1555 43.8061 39.0346 43.8061H34.9312C34.8116 43.8061 34.709 43.6233 34.709 43.3884V39.7842C34.709 39.5564 34.8116 39.368 34.9312 39.368H39.0374C39.157 39.368 39.2554 39.5564 39.2554 39.7842V43.3884" fill="#E6E7E8"/>
<path d="M10.5131 43.3884C10.5131 43.6247 10.4118 43.8061 10.2951 43.8061H6.18745C6.06652 43.8061 5.96808 43.6233 5.96808 43.3884V39.7842C5.96808 39.5564 6.06652 39.368 6.18745 39.368H10.2937C10.4104 39.368 10.5117 39.5564 10.5117 39.7842V43.3884" fill="#E6E7E8"/>
<path d="M17.7328 43.3884C17.7328 43.6247 17.6343 43.8061 17.5134 43.8061H13.4043C13.2876 43.8061 13.185 43.6233 13.185 43.3884V39.7842C13.185 39.5564 13.2876 39.368 13.4043 39.368H17.5134C17.6343 39.368 17.7328 39.5564 17.7328 39.7842V43.3884Z" fill="#E6E7E8"/>
<path d="M46.4203 43.3884C46.4203 43.6247 46.3219 43.8061 46.2023 43.8061H42.0919C41.9737 43.8061 41.8767 43.6233 41.8767 43.3884V39.7842C41.8767 39.5564 41.9751 39.368 42.0919 39.368H46.2009C46.3205 39.368 46.4189 39.5564 46.4189 39.7842V43.3884" fill="#E6E7E8"/>
<path d="M53.6344 43.3884C53.6344 43.6247 53.5359 43.8061 53.4122 43.8061H49.3073C49.1836 43.8061 49.0922 43.6233 49.0922 43.3884V39.7842C49.0922 39.5564 49.1836 39.368 49.3073 39.368H53.4136C53.5359 39.368 53.6344 39.5564 53.6344 39.7842V43.3884Z" fill="#E6E7E8"/>
<path d="M60.8062 43.3884C60.8062 43.6247 60.705 43.8061 60.5883 43.8061H56.4778C56.3583 43.8061 56.2598 43.6233 56.2598 43.3884V39.7842C56.2598 39.5564 56.3583 39.368 56.4778 39.368H60.5883C60.705 39.368 60.8062 39.5564 60.8062 39.7842V43.3884Z" fill="#E6E7E8"/>
<path d="M68.0231 43.3884C68.0231 43.6247 67.9219 43.8061 67.8009 43.8061H63.6947C63.5751 43.8061 63.4725 43.6233 63.4725 43.3884V39.7842C63.4725 39.5564 63.5751 39.368 63.6947 39.368H67.8009C67.9219 39.368 68.0231 39.5564 68.0231 39.7842V43.3884Z" fill="#E6E7E8"/>
<path d="M75.1922 43.3884C75.1922 43.6247 75.0938 43.8061 74.97 43.8061H70.8638C70.74 43.8061 70.6458 43.6233 70.6458 43.3884V39.7842C70.6458 39.5564 70.74 39.368 70.8638 39.368H74.97C75.0938 39.368 75.1922 39.5564 75.1922 39.7842V43.3884Z" fill="#E6E7E8"/>
<path d="M82.8225 43.3884C82.8225 43.6247 82.7212 43.8061 82.6045 43.8061H78.4954C78.3759 43.8061 78.2761 43.6233 78.2761 43.3884V39.7842C78.2761 39.5564 78.3759 39.368 78.4954 39.368H82.6045C82.7212 39.368 82.8225 39.5564 82.8225 39.7842V43.3884Z" fill="#E6E7E8"/>
<path d="M84.6225 50.4492C84.6225 50.6812 84.5241 50.8669 84.4073 50.8669H76.9613C76.8417 50.8669 76.7433 50.6812 76.7433 50.4492V46.8422C76.7433 46.613 76.8417 46.4245 76.9613 46.4245H84.4073C84.5241 46.4245 84.6225 46.613 84.6225 46.8422V50.4492Z" fill="#E6E7E8"/>
<path d="M22.725 36.2151C22.725 36.4472 22.6266 36.637 22.5056 36.637H18.398C18.2812 36.637 18.18 36.4472 18.18 36.2151V32.6081C18.18 32.3789 18.2812 32.1905 18.398 32.1905H22.5056C22.6266 32.1905 22.725 32.3789 22.725 32.6081V36.2151Z" fill="#E6E7E8"/>
<path d="M29.8926 36.2151C29.8926 36.4472 29.7914 36.637 29.6719 36.637H25.5656C25.4447 36.637 25.3434 36.4472 25.3434 36.2151V32.6081C25.3434 32.3789 25.4447 32.1905 25.5642 32.1905H29.6704C29.7914 32.1905 29.8926 32.3789 29.8926 32.6081V36.2151Z" fill="#E6E7E8"/>
<path d="M37.1053 36.2151C37.1053 36.4472 37.0069 36.637 36.8901 36.637H32.7769C32.6573 36.637 32.5617 36.4472 32.5617 36.2151V32.6081C32.5617 32.3789 32.6573 32.1905 32.7769 32.1905H36.8901C37.0069 32.1905 37.1053 32.3789 37.1053 32.6081V36.2151Z" fill="#E6E7E8"/>
<path d="M8.3672 36.2151C8.3672 36.4472 8.26876 36.637 8.14923 36.637H4.03876C3.91923 36.637 3.82361 36.4472 3.82361 36.2151V32.6081C3.82361 32.3789 3.91923 32.1905 4.03876 32.1905H8.14923C8.26876 32.1905 8.3672 32.3789 8.3672 32.6081V36.2151Z" fill="#E6E7E8"/>
<path d="M15.5812 36.2151C15.5812 36.4472 15.4856 36.637 15.3661 36.637H11.2598C11.1375 36.637 11.039 36.4472 11.039 36.2151V32.6081C11.039 32.3789 11.1375 32.1905 11.2612 32.1905H15.3661C15.4856 32.1905 15.5812 32.3789 15.5812 32.6081V36.2151Z" fill="#E6E7E8"/>
<path d="M44.2687 36.2151C44.2687 36.4472 44.1731 36.637 44.0578 36.637H39.9487C39.8292 36.637 39.7308 36.4472 39.7308 36.2151V32.6081C39.7308 32.3789 39.8292 32.1905 39.9487 32.1905H44.0564C44.1731 32.1905 44.2687 32.3789 44.2687 32.6081V36.2151Z" fill="#E6E7E8"/>
<path d="M51.4926 36.2151C51.4926 36.4472 51.3914 36.637 51.2747 36.637H47.1656C47.0461 36.637 46.9476 36.4472 46.9476 36.2151V32.6081C46.9476 32.3789 47.0461 32.1905 47.1656 32.1905H51.2747C51.3914 32.1905 51.4926 32.3789 51.4926 32.6081V36.2151Z" fill="#E6E7E8"/>
<path d="M58.6547 36.2151C58.6547 36.4472 58.5563 36.637 58.4325 36.637H54.3277C54.2081 36.637 54.1055 36.4472 54.1055 36.2151V32.6081C54.1055 32.3789 54.2081 32.1905 54.3277 32.1905H58.4339C58.5563 32.1905 58.6547 32.3789 58.6547 32.6081V36.2151Z" fill="#E6E7E8"/>
<path d="M65.8772 36.2151C65.8772 36.4472 65.7732 36.637 65.6564 36.637H61.5488C61.4278 36.637 61.3294 36.4472 61.3294 36.2151V32.6081C61.3294 32.3789 61.4278 32.1905 61.5488 32.1905H65.6564C65.7732 32.1905 65.8772 32.3789 65.8772 32.6081V36.2151Z" fill="#E6E7E8"/>
<path d="M73.0406 36.2151C73.0406 36.4472 72.9436 36.637 72.824 36.637H68.7136C68.5969 36.637 68.4956 36.4472 68.4956 36.2151V32.6081C68.4956 32.3789 68.5969 32.1905 68.7136 32.1905H72.824C72.9436 32.1905 73.042 32.3789 73.042 32.6081V36.2151" fill="#E6E7E8"/>
<path d="M80.6709 36.2151C80.6709 36.4472 80.5725 36.637 80.4529 36.637H76.3425C76.2258 36.637 76.1273 36.4472 76.1273 36.2151V32.6081C76.1273 32.3789 76.2258 32.1905 76.3425 32.1905H80.4529C80.5725 32.1905 80.6709 32.3789 80.6709 32.6081V36.2151Z" fill="#E6E7E8"/>
<path d="M87.8428 36.2151C87.8428 36.4472 87.7486 36.637 87.6248 36.637H83.5186C83.3976 36.637 83.2964 36.4472 83.2964 36.2151V32.6081C83.2964 32.3789 83.3976 32.1905 83.5186 32.1905H87.6248C87.7486 32.1905 87.8428 32.3789 87.8428 32.6081V36.2151Z" fill="#E6E7E8"/>
<path d="M16.5037 64.9266C16.5037 65.1642 16.3336 65.3527 16.124 65.3527H10.6551C10.4442 65.3527 10.274 65.1642 10.274 64.9266V61.3238C10.274 61.0959 10.4428 60.9075 10.6551 60.9075H16.1255C16.3336 60.9075 16.5037 61.0959 16.5037 61.3238V64.9266Z" fill="#E6E7E8"/>
</svg>
