<svg width="90" height="90" viewBox="0 0 90 90" fill="none" xmlns="http://www.w3.org/2000/svg">
<path d="M87.1875 8.4375C87.1875 5.625 84.375 2.8125 81.5625 2.8125H8.4375C5.625 2.8125 2.8125 5.625 2.8125 8.4375V61.875H87.1875V8.4375Z" fill="#212528"/>
<path d="M2.8125 61.875V67.5C2.8125 70.3125 5.625 73.125 8.4375 73.125H81.5625C84.375 73.125 87.1875 70.3125 87.1875 67.5V61.875H2.8125Z" fill="#DDDDDD"/>
<path d="M33.75 75.9375C33.75 81.5625 28.125 81.5625 22.5 81.5625H67.5C61.875 81.5625 56.25 81.5625 56.25 75.9375V73.125H33.75V75.9375Z" fill="#BFBEBE"/>
<path d="M8.4375 8.4375H81.5625V56.25H8.4375V8.4375Z" fill="#3E4347"/>
<path d="M45 68.7655C45.7767 68.7655 46.4062 68.1359 46.4062 67.3593C46.4062 66.5826 45.7767 65.953 45 65.953C44.2233 65.953 43.5938 66.5826 43.5938 67.3593C43.5938 68.1359 44.2233 68.7655 45 68.7655Z" fill="#94989B"/>
<path d="M22.5 81.5625H67.5V87.1875H22.5V81.5625Z" fill="#94989B"/>
</svg>
