<svg width="90" height="90" viewBox="0 0 90 90" fill="none" xmlns="http://www.w3.org/2000/svg">
<path d="M71.5077 37.7578C71.5077 23.1328 59.6249 11.25 44.9999 11.25C30.3749 11.25 18.4921 23.1328 18.4921 37.7578V60.6797C18.4921 75.3047 30.3749 87.1875 44.9999 87.1875C59.6249 87.1875 71.5077 75.3047 71.5077 60.6797V37.7578Z" fill="#E0E0E0"/>
<path d="M5.20311 44.3672C4.35936 44.3672 3.65623 43.875 3.30467 43.1016C2.81248 42.0469 3.30467 40.7812 4.35936 40.2891C9.14061 38.1094 12.164 33.9609 12.164 28.5469V26.6484C12.164 11.9531 20.1094 2.8125 32.9062 2.8125C44.1562 2.8125 49.2187 11.8828 49.2187 20.8828C49.2187 22.0781 48.3047 22.9922 47.1094 22.9922C45.914 22.9922 45 22.0781 45 20.8828C45 7.66406 34.9453 7.03125 32.9062 7.03125C18 7.03125 16.3828 20.7422 16.3828 26.6484V28.6172C16.3828 35.7188 12.4453 41.3438 6.11717 44.2266C5.76561 44.2969 5.48436 44.3672 5.20311 44.3672Z" fill="#504F4F"/>
<path d="M71.5077 37.7578C71.5077 23.1328 59.6249 11.25 44.9999 11.25C30.3749 11.25 18.4921 23.1328 18.4921 37.7578V60.6797C18.4921 75.3047 30.3749 87.1875 44.9999 87.1875C59.6249 87.1875 71.5077 75.3047 71.5077 60.6797V37.7578Z" fill="url(#paint0_linear)"/>
<path opacity="0.6" d="M45.0702 11.25C42.3983 11.25 40.0077 11.6719 37.4765 12.375V46.7578C37.4765 50.9766 40.8515 54.3516 45.0702 54.3516C49.289 54.3516 52.664 50.9766 52.664 46.7578V12.375C50.1327 11.6719 47.6718 11.25 45.0702 11.25Z" fill="#757575"/>
<path d="M44.9999 36.6328C42.1874 36.6328 39.9374 34.3828 39.9374 31.5703V23.9063C39.9374 21.0938 42.1874 18.8438 44.9999 18.8438C47.8124 18.8438 50.0624 21.0938 50.0624 23.9063V31.5703C50.0624 34.3828 47.8124 36.6328 44.9999 36.6328Z" fill="#504F4F"/>
<defs>
<linearGradient id="paint0_linear" x1="44.9999" y1="11.3555" x2="44.9999" y2="87.075" gradientUnits="userSpaceOnUse">
<stop stop-color="#E0E0E0"/>
<stop offset="1" stop-color="#9E9E9E"/>
</linearGradient>
</defs>
</svg>
