<svg width="90" height="90" viewBox="0 0 90 90" fill="none" xmlns="http://www.w3.org/2000/svg">
<path d="M44.7117 57.2203H76.3734C91.4695 57.2203 91.2867 47.1164 86.2594 36.5836C79.4039 22.9078 77.6601 22.9078 67.0992 22.9078H22.9359C12.375 22.9078 10.6312 22.9078 3.77576 36.5836C-1.24455 47.1164 -1.43439 57.2203 13.6617 57.2203H45.3234" fill="#40C0E7"/>
<path d="M20.0813 26.7328V18.0914C20.0813 16.3828 21.3469 14.9977 22.9079 14.9977H67.1344C68.6954 14.9977 69.954 16.3828 69.954 18.0914V26.7258H20.0813V26.7328Z" fill="#196CA2"/>
<path d="M80.9156 79.3336H8.95781C4.40156 79.3336 0.703125 75.6422 0.703125 71.0789V46.8141C0.703125 42.2508 4.40156 38.5594 8.95781 38.5594H80.9086C85.4719 38.5594 89.1633 42.2578 89.1633 46.8141V71.0789C89.1703 75.6422 85.4719 79.3336 80.9156 79.3336Z" fill="#196CA2"/>
<path d="M69.5461 84.2555H20.4539V67.5773C20.4539 65.2992 21.4312 63.457 22.6335 63.457H67.3593C68.5617 63.457 69.539 65.3063 69.539 67.5773V84.2555H69.5461Z" fill="#2F2F2F"/>
<path d="M69.9047 26.6625C69.9047 24.0047 63.3023 21.8461 55.1531 21.8461H34.8609C26.7117 21.8461 20.1094 24.0047 20.1094 26.6625V26.8945C20.1094 29.5594 26.7188 29.1797 34.8609 29.1797H55.1531C63.3023 29.1797 69.9047 29.5594 69.9047 26.8945V26.6625Z" fill="#006CA0"/>
<path d="M65.0391 24.6094H25.4883V7.73436C25.4883 6.86249 26.2125 6.15936 27.1125 6.15936H63.4219C64.3148 6.15936 65.0461 6.86249 65.0461 7.73436V24.6094H65.0391Z" fill="white" stroke="#78A3AD" stroke-width="0.625" stroke-miterlimit="10"/>
<path d="M68.5195 51.5883H21.6562C20.9531 51.5883 20.3906 50.9625 20.3906 50.1891V45.2531C20.3906 44.4797 20.9602 43.8539 21.6562 43.8539H68.5125C69.2156 43.8539 69.7781 44.4797 69.7781 45.2531V50.1891C69.7852 50.9625 69.2156 51.5883 68.5195 51.5883Z" fill="#2F2F2F"/>
<path d="M69.7781 86.857V72.3727H61.65L61.6851 81.4078C61.9804 82.5539 60.8906 83.6297 59.4422 83.6297H30.7476C29.2922 83.6297 28.2093 82.5539 28.5047 81.4078L28.5398 72.3727H20.4117V86.857C19.8492 88.3336 21.2203 89.8242 23.1328 89.8242H67.05C68.9695 89.8242 70.3406 88.3336 69.7781 86.857Z" fill="#78A3AD"/>
<path d="M78.3985 46.4555C79.4431 46.4555 80.2899 45.6087 80.2899 44.5641C80.2899 43.5195 79.4431 42.6727 78.3985 42.6727C77.3539 42.6727 76.5071 43.5195 76.5071 44.5641C76.5071 45.6087 77.3539 46.4555 78.3985 46.4555Z" fill="#F79329"/>
<path d="M78.3985 51.8133C79.4431 51.8133 80.2899 50.9665 80.2899 49.9219C80.2899 48.8773 79.4431 48.0305 78.3985 48.0305C77.3539 48.0305 76.5071 48.8773 76.5071 49.9219C76.5071 50.9665 77.3539 51.8133 78.3985 51.8133Z" fill="#BDCF46"/>
<path d="M45.1195 55.6031C47.3446 55.6031 49.1484 53.7993 49.1484 51.5742C49.1484 49.3491 47.3446 47.5453 45.1195 47.5453C42.8944 47.5453 41.0906 49.3491 41.0906 51.5742C41.0906 53.7993 42.8944 55.6031 45.1195 55.6031Z" fill="#2F2F2F"/>
</svg>
