<svg width="90" height="90" viewBox="0 0 90 90" fill="none" xmlns="http://www.w3.org/2000/svg">
<path d="M89.965 27.5646C89.965 16.5475 81.0339 7.61624 70.0167 7.61624C58.9994 7.61624 50.0685 16.5475 50.0685 27.5646C50.0685 29.3386 50.3012 31.0581 50.7357 32.6953H44.6776C45.1215 31.0212 45.3458 29.2965 45.3449 27.5646C45.3449 16.5475 36.4138 7.61624 25.3965 7.61624C14.3793 7.61624 5.44834 16.5475 5.44834 27.5646C5.44834 35.5329 10.121 42.409 16.875 45.605V54.9313C13.0078 50.1448 5.82504 48.3444 5.82504 48.3444C3.7285 46.3101 0.175781 47.7958 0.175781 50.7171V71.7196C0.175781 74.6409 3.7285 76.1265 5.82504 74.0921C5.82504 74.0921 13.0078 72.292 16.875 67.5053V79.4909C16.875 81.2209 18.1953 82.6172 19.9253 82.6172H75.6353C77.3654 82.6172 78.75 81.2209 78.75 79.4909V45.5036C85.39 42.265 89.965 35.4494 89.965 27.5646Z" fill="#2B3B47"/>
<path d="M40.555 27.5646C40.555 35.9364 33.7683 42.7231 25.3965 42.7231C17.0248 42.7231 10.238 35.9364 10.238 27.5646C10.238 19.1929 17.0248 12.4061 25.3965 12.4061C33.7683 12.4061 40.555 19.1929 40.555 27.5646ZM70.0645 12.4063C61.6927 12.4063 54.906 19.193 54.906 27.5648C54.906 35.9366 61.6927 42.7233 70.0645 42.7233C78.4362 42.7233 85.223 35.9366 85.223 27.5648C85.223 19.193 78.4362 12.4063 70.0645 12.4063Z" fill="#8F9799"/>
<path d="M25.5194 77.0504C27.102 77.0504 28.385 75.7674 28.385 74.1848C28.385 72.6022 27.102 71.3192 25.5194 71.3192C23.9368 71.3192 22.6538 72.6022 22.6538 74.1848C22.6538 75.7674 23.9368 77.0504 25.5194 77.0504Z" fill="#FF473E"/>
<path d="M39.8971 76.5624H34.9917C34.0066 76.5624 33.2083 75.7638 33.2083 74.7789V73.5908C33.2083 72.6057 34.0068 71.8073 34.9917 71.8073H39.8971C40.8822 71.8073 41.6806 72.6059 41.6806 73.5908V74.7789C41.6807 75.7638 40.8822 76.5624 39.8971 76.5624Z" fill="#8F9799"/>
<path d="M59.9674 63.8584H35.5932C34.6357 63.8584 33.8595 63.0821 33.8595 62.1246V48.4546C33.8595 47.4972 34.6357 46.7209 35.5932 46.7209H59.9674C60.9249 46.7209 61.7011 47.4972 61.7011 48.4546V62.1246C61.7011 63.0821 60.9249 63.8584 59.9674 63.8584Z" fill="#ADB8BC"/>
<path d="M56.5847 60.6996H38.9761C38.8207 60.6996 38.6668 60.669 38.5232 60.6095C38.3796 60.55 38.2491 60.4629 38.1392 60.353C38.0293 60.2431 37.9421 60.1126 37.8826 59.969C37.8232 59.8254 37.7926 59.6715 37.7926 59.516V50.7512C37.7926 50.5958 37.8232 50.4419 37.8826 50.2983C37.9421 50.1547 38.0293 50.0242 38.1392 49.9143C38.2491 49.8044 38.3796 49.7172 38.5232 49.6577C38.6668 49.5983 38.8207 49.5677 38.9761 49.5677H56.5847C56.7401 49.5677 56.894 49.5983 57.0376 49.6577C57.1812 49.7172 57.3117 49.8044 57.4216 49.9143C57.5315 50.0242 57.6187 50.1547 57.6782 50.2983C57.7376 50.4419 57.7682 50.5958 57.7682 50.7512V59.516C57.7682 59.8299 57.6434 60.1309 57.4215 60.3529C57.1996 60.5748 56.8985 60.6995 56.5847 60.6996Z" fill="#132028"/>
<path d="M30.4933 27.5729C30.4933 30.4108 28.2347 32.7197 25.3967 32.7197C22.5587 32.7197 20.2581 30.4101 20.2581 27.5976H10.2382C10.2382 19.1601 17.0508 12.4063 25.3125 12.4063V22.426C28.3008 22.426 30.4933 24.7349 30.4933 27.5729ZM68.5456 25.1357L67.9947 17.4482C67.9556 16.9047 67.339 16.6111 66.8927 16.9237L60.5215 21.3848C60.0791 21.6946 60.138 22.3671 60.6275 22.5953L67.5494 25.8216C68.0344 26.0476 68.5837 25.6693 68.5456 25.1357ZM66.7559 28.3583L59.2309 26.6925C58.6988 26.5748 58.2416 27.0821 58.4137 27.5991L60.8713 34.9784C61.042 35.4908 61.7033 35.6261 62.0617 35.2222L67.1291 29.5086C67.484 29.1083 67.2782 28.4739 66.7559 28.3583ZM80.8979 26.6925L73.3729 28.3583C72.8504 28.4739 72.6446 29.1083 72.9997 29.5086L78.0671 35.2222C78.4255 35.6261 79.0868 35.4908 79.2575 34.9784L81.7151 27.5991C81.8874 27.0821 81.43 26.5748 80.8979 26.6925ZM69.3116 30.6585L65.3536 37.2651C65.0737 37.7327 65.4105 38.3203 65.9554 38.3203H73.7332C74.2732 38.3203 74.6107 37.7422 74.3407 37.2746L70.5212 30.6647C70.2533 30.2013 69.5864 30.1994 69.3116 30.6585ZM71.6717 17.4482L71.1208 25.1357C71.0824 25.6693 71.6318 26.0476 72.1167 25.8216L79.0387 22.5953C79.5282 22.3671 79.5871 21.6946 79.1446 21.3848L72.7735 16.9237C72.3273 16.6111 71.7107 16.9047 71.6717 17.4482Z" fill="#132028"/>
<path d="M25.0271 27.1568C25.9223 26.2616 26.1195 25.0075 25.4677 24.3557C24.8159 23.7039 23.5618 23.9012 22.6667 24.7964C21.7716 25.6916 21.5743 26.9456 22.2261 27.5974C22.8779 28.2492 24.132 28.0519 25.0271 27.1568Z" fill="#ADB8BC"/>
</svg>
